# xmcd CD database file
#
# Track frame offsets:
#	150
#	11136
#	21743
#	36439
#	52181
#	66945
#	77215
#	86560
#	97596
#	108757
#
# Disc length: 1583 seconds
#
# Revision: 0
# Processed by: cddbd v1.5.1PL2 Copyright (c) Steve Scherf et al.
# Submitted via: CDex 1.51
#
DISCID=80062d0a
DTITLE=The Kendalls - Heaven's Just A Sin Away
DYEAR=2004
DGENRE=Country
TTITLE0=Heaven's Just A Sin Away
TTITLE1=I Take The Chance
TTITLE2=Makin' Believe
TTITLE3=When Can We Do This Again
TTITLE4=I'm Coming Down Lonely
TTITLE5=Mandolin Man
TTITLE6=I Don't Drink From The River
TTITLE7=Another Dream Just Came True
TTITLE8=Gone Away
TTITLE9=I Had A Lovely Time
EXTD=YEAR: 2004
EXTT0=
EXTT1=
EXTT2=
EXTT3=
EXTT4=
EXTT5=
EXTT6=
EXTT7=
EXTT8=
EXTT9=
PLAYORDER=
